# xmcd
#
# Track frame offsets:
#	150
#	13815
#	30935
#	46227
#	61825
#	75252
#	88155
#	105172
#	117712
#	132795
#	149582
#	163675
#	179112
#	194280
#	218742
#	236155
#	250222
#
# Disc length: 3496 seconds
#
# Revision: 1
# Processed by: cddbd v1.5.1PL0 Copyright (c) Steve Scherf et al.
# Submitted via: MusicWizard 7.0.2
#
DISCID=e80da611
DTITLE=Various Artist - I Love Country - New Country Vol. 2
DYEAR=1989
DGENRE=Country
TTITLE0=The Shooters - Til The Old Wears Off
TTITLE1=The Goldens - Country Comfort
TTITLE2=Exile - Shelter From The Heart
TTITLE3=The Gatlin Brothers - Chop Wood Any Carry Water
TTITLE4=Russel Smith - Not Made Of Stone
TTITLE5=Asleep At The Wheel - Walk On By
TTITLE6=The O´kanes - All Because Of You
TTITLE7=Bobby Lee Springfield - I Need A Girlfriend
TTITLE8=Marty Stuart - Mirrors Don´t Lie
TTITLE9=Ricky Skaggs - Woman You Won´t Break Me
TTITLE10=Rodney Crowell - Brand New Rag
TTITLE11=Shenendoah - Mama Knows
TTITLE12=The Shooters - Remote Control
TTITLE13=The O´kanes - Highway 55
TTITLE14=Don King - Over My Head
TTITLE15=Mark Gray - Dance With Me
TTITLE16=Sweethearts Of The Rodeo - You Never Talk Sweet
EXTD=(c)1989 CBS  France\nupc 5099746505028\nCBS 454050 (c 1989)
EXTT0=
EXTT1=
EXTT2=
EXTT3=
EXTT4=
EXTT5=
EXTT6=
EXTT7=
EXTT8=
EXTT9=
EXTT10=
EXTT11=
EXTT12=
EXTT13=
EXTT14=
EXTT15=
EXTT16=
PLAYORDER=
